<svg width="61" height="56" viewBox="0 0 61 56" fill="none" xmlns="http://www.w3.org/2000/svg">
<g clip-path="url(#clip0_4261_254642)">
<path d="M57.3119 48.5234C52.285 51.1195 48.5057 50.5755 48.1042 47.4409C47.6502 43.9356 47.9014 39.0041 48.0666 37.1238C48.127 36.4349 48.3365 34.2108 48.4681 33.538C50.1859 33.1794 52.4797 32.3413 52.4797 35.3255C53.3473 34.8837 54.9388 33.5782 55.2114 32.1922C56.725 25.0299 49.2202 26.9088 49.2202 26.9088C51.0508 18.4478 53.0196 9.43742 57.2112 2.0011L53.0331 -0.00134277C50.2047 2.16227 47.3561 4.35542 44.9803 4.70864C42.8113 5.23242 29.5503 6.27326 30.4824 0.202797C29.001 0.320983 28.1683 2.06423 28.1764 3.56841C28.6545 10.1197 37.1693 8.82097 42.3533 9.46159C37.0027 16.1606 32.3008 23.0973 28.0515 30.2798C24.6845 30.9244 24.24 26.7476 24.8135 25.5967C24.8135 25.5967 22.5921 26.2198 21.7299 28.6534C20.689 31.2105 21.8669 35.5337 25.4917 35.7754C21.9045 42.0876 17.6014 52.4289 8.79927 50.362C5.85402 49.7549 2.41454 44.767 4.19405 41.8016C5.28727 40.2826 3.66624 39.2163 1.81018 41.4698C-2.75744 46.5102 1.64902 56.5775 11.2194 55.9731C21.5083 56.1961 28.4504 43.4078 32.1974 35.8103L41.9531 34.2766L41.3353 42.2367C40.1051 62.0342 54.3546 54.3924 54.3546 54.3924C56.3356 53.4926 58.4105 51.3263 58.3595 48.8001C58.252 47.9499 57.782 48.279 57.3092 48.5207L57.3119 48.5234ZM42.7898 28.3499L35.4059 29.2497C39.0858 23.3632 41.0976 17.9213 47.0297 11.9516C45.3939 17.1652 44.0617 23.0812 42.7898 28.3499Z" fill="white"/>
<path d="M59.3238 52.7512C58.6188 52.7512 58.0493 53.322 58.0493 54.0271C58.0493 54.7322 58.6188 55.303 59.3238 55.303C60.0289 55.303 60.5997 54.7308 60.5997 54.0271C60.5997 53.3234 60.0289 52.7512 59.3238 52.7512ZM59.3238 55.0263C58.7692 55.0263 58.3246 54.5791 58.3246 54.0258C58.3246 53.4724 58.7705 53.0239 59.3238 53.0239C59.8772 53.0239 60.3244 53.4711 60.3244 54.0258C60.3244 54.5804 59.8785 55.0263 59.3238 55.0263Z" fill="white"/>
<path d="M59.8475 53.7316C59.8475 53.4912 59.6514 53.2978 59.4164 53.2978H58.8013V54.755H59.0712V54.1628H59.2686L59.5466 54.755H59.8488L59.5601 54.1386C59.7306 54.0795 59.8488 53.9183 59.8488 53.7316H59.8475ZM59.4164 53.8901H59.0712V53.5718H59.4164C59.5023 53.5718 59.5775 53.6417 59.5775 53.7316C59.5775 53.8216 59.5023 53.8901 59.4164 53.8901Z" fill="white"/>
</g>
<defs>
<clipPath id="clip0_4261_254642">
<rect width="60.6012" height="56" fill="white"/>
</clipPath>
</defs>
</svg>
